# xmcd
#
# Track frame offsets:
#	150
#	20797
#	50647
#	73528
#	102694
#	124511
#	151001
#	172015
#	196951
#	216098
#
# Disc length: 3235 seconds
#
# Revision: 0
# Processed by: cddbd v1.5.1PL0 Copyright (c) Steve Scherf et al.
# Submitted via: EasyCDDAExtractor 4.6.9.1
#
DISCID=8e0ca10a
DTITLE=Brian Stoltz - God, Guns and Money
DYEAR=2005
DGENRE=Blues
TTITLE0=God, Guns and Money pt. 1
TTITLE1=War Song
TTITLE2=What Is Real?
TTITLE3=Opposite Sides Of The War
TTITLE4=The Greatest Armed Robbery In History
TTITLE5=Still Some Sense Left In The World
TTITLE6=Downtown
TTITLE7=Chicken Hawk
TTITLE8=This Christmas
TTITLE9=God, Guns and Money pt. 2
EXTD=
EXTT0=
EXTT1=
EXTT2=
EXTT3=
EXTT4=
EXTT5=
EXTT6=
EXTT7=
EXTT8=
EXTT9=
PLAYORDER=
